<svg xmlns="http://www.w3.org/2000/svg">
	<symbol id="icon_instagram" viewBox="0 0 512 512">
		<path d="M305 256c0 27.063-21.938 49-49 49s-49-21.938-49-49 21.938-49 49-49 49 21.938 49 49zm0 0"/>
		<path d="M370.594 169.305a45.546 45.546 0 0 0-10.996-16.903 45.514 45.514 0 0 0-16.903-10.996c-5.18-2.011-12.96-4.406-27.293-5.058-15.504-.707-20.152-.86-59.402-.86-39.254 0-43.902.149-59.402.856-14.332.656-22.118 3.05-27.293 5.062a45.483 45.483 0 0 0-16.903 10.996 45.572 45.572 0 0 0-11 16.903c-2.011 5.18-4.406 12.965-5.058 27.297-.707 15.5-.86 20.148-.86 59.402 0 39.25.153 43.898.86 59.402.652 14.332 3.047 22.114 5.058 27.293a45.563 45.563 0 0 0 10.996 16.903 45.514 45.514 0 0 0 16.903 10.996c5.18 2.015 12.965 4.41 27.297 5.062 15.5.707 20.144.856 59.398.856 39.258 0 43.906-.149 59.402-.856 14.332-.652 22.118-3.047 27.297-5.062a48.68 48.68 0 0 0 27.899-27.899c2.011-5.18 4.406-12.96 5.062-27.293.707-15.504.856-20.152.856-59.402 0-39.254-.149-43.902-.856-59.402-.652-14.332-3.047-22.118-5.062-27.297zM256 331.485c-41.691 0-75.488-33.794-75.488-75.485s33.797-75.484 75.488-75.484c41.688 0 75.484 33.793 75.484 75.484S297.688 331.484 256 331.484zm78.469-136.313c-9.742 0-17.64-7.899-17.64-17.64s7.898-17.641 17.64-17.641 17.64 7.898 17.64 17.64c-.004 9.742-7.898 17.64-17.64 17.64zm0 0"/>
		<path d="M256 0C114.637 0 0 114.637 0 256s114.637 256 256 256 256-114.637 256-256S397.363 0 256 0zm146.113 316.605c-.71 15.649-3.199 26.333-6.832 35.684a75.164 75.164 0 0 1-42.992 42.992c-9.348 3.633-20.035 6.117-35.68 6.832-15.675.715-20.683.887-60.605.887-39.926 0-44.93-.172-60.61-.887-15.644-.715-26.331-3.199-35.68-6.832a72.018 72.018 0 0 1-26.038-16.957 72.044 72.044 0 0 1-16.953-26.035c-3.633-9.348-6.121-20.035-6.832-35.68-.723-15.68-.891-20.687-.891-60.609s.168-44.93.887-60.605c.71-15.649 3.195-26.332 6.828-35.684a72.013 72.013 0 0 1 16.96-26.035 72.003 72.003 0 0 1 26.036-16.957c9.352-3.633 20.035-6.117 35.684-6.832C211.07 109.172 216.078 109 256 109s44.93.172 60.605.89c15.649.712 26.332 3.196 35.684 6.825a72.061 72.061 0 0 1 26.04 16.96 72.027 72.027 0 0 1 16.952 26.036c3.637 9.352 6.121 20.035 6.836 35.684.715 15.675.883 20.683.883 60.605s-.168 44.93-.887 60.605zm0 0"/>
	</symbol>
	<symbol id="icon_weibo" viewBox="0 0 97.75 97.75">
		<path d="M48.875 0C21.883 0 0 21.883 0 48.875S21.883 97.75 48.875 97.75 97.75 75.867 97.75 48.875 75.867 0 48.875 0zm-5.543 76.779c-14.294 0-28.904-6.928-28.904-18.32 0-5.957 3.773-12.844 10.271-19.344 8.68-8.674 18.799-12.627 22.604-8.818 1.679 1.678 1.841 4.582.763 8.051-.563 1.748 1.639.779 1.639.783 7.016-2.938 13.135-3.109 15.37.086 1.192 1.703 1.079 4.09-.021 6.859-.509 1.273.157 1.473 1.127 1.762 3.952 1.227 8.351 4.189 8.351 9.412-.001 8.643-12.464 19.529-31.2 19.529zm25.874-36.226a4.339 4.339 0 0 0-.905-4.25 4.352 4.352 0 0 0-4.136-1.334v-.002a2.263 2.263 0 0 1-2.69-1.742 2.267 2.267 0 0 1 1.744-2.697c3.002-.637 6.254.291 8.455 2.732a8.867 8.867 0 0 1 1.854 8.689 2.272 2.272 0 0 1-2.857 1.465 2.275 2.275 0 0 1-1.461-2.861h-.004zm13.232 4.275v.01a2.638 2.638 0 0 1-3.321 1.693 2.632 2.632 0 0 1-1.699-3.32l-.001-.004a12.96 12.96 0 0 0-2.71-12.682c-3.218-3.563-7.96-4.926-12.343-3.994a2.638 2.638 0 1 1-1.102-5.16h.002c6.16-1.309 12.834.602 17.357 5.619 4.527 5.01 5.749 11.842 3.817 17.838z"/>
		<path d="M43.444 57.424c-.678-.27-1.526.057-1.924.723-.386.672-.173 1.435.507 1.713.69.285 1.573-.043 1.972-.727.381-.686.134-1.457-.555-1.709z"/>
		<path d="M40.688 45.58c-11.402 1.129-20.051 8.111-19.311 15.598.741 7.488 10.588 12.643 21.991 11.518 11.405-1.127 20.05-8.11 19.312-15.602-.741-7.487-10.584-12.643-21.992-11.514zm10.007 17.66c-2.327 5.264-9.021 8.07-14.702 6.24-5.482-1.771-7.803-7.187-5.402-12.063 2.356-4.783 8.492-7.487 13.918-6.074 5.617 1.452 8.483 6.751 6.186 11.897z"/>
		<path d="M39.091 59.229c-1.767-.739-4.049.021-5.138 1.73-1.104 1.715-.587 3.76 1.167 4.559 1.779.813 4.141.041 5.244-1.719 1.084-1.779.512-3.809-1.273-4.57z"/>
	</symbol>
	<symbol id="icon_github" viewBox="0 0 512 512">
		<path d="M256 0C115.39 0 0 115.39 0 256c0 119.988 84.195 228.984 196 256v-84.695c-11.078 2.425-21.273 2.496-32.55-.828-15.13-4.465-27.423-14.543-36.548-29.91-5.816-9.813-16.125-20.454-26.879-19.672l-2.636-29.883c23.254-1.992 43.37 14.168 55.312 34.23 5.305 8.922 11.41 14.153 19.246 16.465 7.575 2.23 15.707 1.16 25.184-2.187 2.379-18.973 11.07-26.075 17.637-36.075v-.015c-66.68-9.946-93.254-45.32-103.801-73.242-13.977-37.075-6.477-83.391 18.238-112.66.48-.571 1.348-2.063 1.012-3.106-11.332-34.23 2.476-62.547 2.984-65.55 13.078 3.866 15.203-3.892 56.809 21.386l7.191 4.32c3.008 1.793 2.063.77 5.07.543 17.372-4.719 35.684-7.324 53.727-7.558 18.18.234 36.375 2.84 54.465 7.75l2.328.234c-.203-.031.633-.149 2.035-.984 51.973-31.481 50.106-21.192 64.043-25.723.504 3.008 14.13 31.785 2.918 65.582-1.512 4.656 45.059 47.3 19.246 115.754-10.547 27.933-37.117 63.308-103.797 73.254v.015c8.547 13.028 18.817 19.957 18.762 46.832V512c111.809-27.016 196-136.012 196-256C512 115.39 396.61 0 256 0zm0 0"/>
	</symbol>
	<symbol viewBox="0 0 512 512" id="icon_twitter">
		<path d="M256 0C114.637 0 0 114.637 0 256s114.637 256 256 256 256-114.637 256-256S397.363 0 256 0zm116.887 199.602c.113 2.52.168 5.05.168 7.593 0 77.645-59.102 167.18-167.184 167.184h.004-.004c-33.184 0-64.062-9.727-90.066-26.395 4.597.543 9.277.813 14.015.813 27.532 0 52.868-9.39 72.98-25.152-25.722-.477-47.41-17.465-54.894-40.813a58.481 58.481 0 0 0 11.043 1.063c5.363 0 10.559-.723 15.496-2.07-26.886-5.384-47.14-29.145-47.14-57.598 0-.266 0-.504.007-.75a58.354 58.354 0 0 0 26.614 7.347c-15.778-10.527-26.149-28.523-26.149-48.91a58.597 58.597 0 0 1 7.957-29.535c28.977 35.555 72.282 58.937 121.118 61.394a58.708 58.708 0 0 1-1.528-13.398c0-32.437 26.317-58.754 58.766-58.754 16.902 0 32.168 7.145 42.89 18.567a117.855 117.855 0 0 0 37.313-14.262c-4.395 13.715-13.707 25.222-25.84 32.5 11.887-1.422 23.215-4.574 33.742-9.254a119.412 119.412 0 0 1-29.308 30.43zm0 0"/>
	</symbol>
	<symbol viewBox="0 0 512 512" id="icon_facebook">
		<path d="M297.277 508.668zm0 0M302.398 507.793c-1.02.187-2.039.36-3.058.535 1.02-.176 2.039-.348 3.058-.535zm0 0M285.137 510.34zm0 0M290.055 509.738zm0 0M309.367 506.41zm0 0M326.664 502.113c-.726.207-1.453.403-2.18.606.727-.203 1.454-.399 2.18-.606zm0 0M321.434 503.543c-.79.207-1.582.418-2.375.617.793-.2 1.586-.406 2.375-.617zm0 0M314.59 505.254c-.836.195-1.68.379-2.524.566.844-.187 1.688-.37 2.524-.566zm0 0M277.527 511.09zm0 0M512 256C512 114.637 397.363 0 256 0S0 114.637 0 256s114.637 256 256 256c1.504 0 3-.031 4.5-.059V312.656h-55V248.56h55V201.39c0-54.703 33.395-84.477 82.191-84.477 23.368 0 43.454 1.742 49.309 2.52v57.171h-33.648c-26.547 0-31.688 12.618-31.688 31.13v40.824h63.477l-8.274 64.097h-55.203V502.11C433.668 471.434 512 372.852 512 256zm0 0M272.914 511.43zm0 0M264.754 511.836zm0 0"/>
	</symbol>
	<symbol id="svg-menu" viewBox="0 0 24.75 24.75">
		<path d="M0 3.875a2 2 0 0 1 2-2h20.75a2 2 0 0 1 0 4H2a2 2 0 0 1-2-2zm22.75 6.5H2a2 2 0 0 0 0 4h20.75a2 2 0 0 0 0-4zm0 8.5H2a2 2 0 0 0 0 4h20.75a2 2 0 0 0 0-4z"/>
	</symbol>
	<symbol id="svg-close" viewBox="0 0 492 492">
		<path d="M300.188 246L484.14 62.04c5.06-5.064 7.852-11.82 7.86-19.024 0-7.208-2.792-13.972-7.86-19.028L468.02 7.872C462.952 2.796 456.196.016 448.984.016c-7.2 0-13.956 2.78-19.024 7.856L246.008 191.82 62.048 7.872C56.988 2.796 50.228.016 43.02.016c-7.2 0-13.96 2.78-19.02 7.856L7.872 23.988c-10.496 10.496-10.496 27.568 0 38.052L191.828 246 7.872 429.952C2.808 435.024.02 441.78.02 448.984c0 7.204 2.788 13.96 7.852 19.028l16.124 16.116c5.06 5.072 11.824 7.856 19.02 7.856 7.208 0 13.968-2.784 19.028-7.856l183.96-183.952 183.952 183.952c5.068 5.072 11.824 7.856 19.024 7.856h.008c7.204 0 13.96-2.784 19.028-7.856l16.12-16.116c5.06-5.064 7.852-11.824 7.852-19.028 0-7.204-2.792-13.96-7.852-19.028L300.188 246z"/>
	</symbol>
	<symbol id="svg-arrow-right" viewBox="0 0 492 492">
		<path d="M382.678 226.804L163.73 7.86C158.666 2.792 151.906 0 144.698 0s-13.968 2.792-19.032 7.86l-16.124 16.12c-10.492 10.504-10.492 27.576 0 38.064L293.398 245.9l-184.06 184.06c-5.064 5.068-7.86 11.824-7.86 19.028 0 7.212 2.796 13.968 7.86 19.04l16.124 16.116c5.068 5.068 11.824 7.86 19.032 7.86s13.968-2.792 19.032-7.86L382.678 265c5.076-5.084 7.864-11.872 7.848-19.088.016-7.244-2.772-14.028-7.848-19.108z"/>
	</symbol>
	<symbol id="svg-arrow-left" viewBox="0 0 492 492">
		<path d="M198.608 246.104L382.664 62.04c5.068-5.056 7.856-11.816 7.856-19.024 0-7.212-2.788-13.968-7.856-19.032l-16.128-16.12C361.476 2.792 354.712 0 347.504 0s-13.964 2.792-19.028 7.864L109.328 227.008c-5.084 5.08-7.868 11.868-7.848 19.084-.02 7.248 2.76 14.028 7.848 19.112l218.944 218.932c5.064 5.072 11.82 7.864 19.032 7.864 7.208 0 13.964-2.792 19.032-7.864l16.124-16.12c10.492-10.492 10.492-27.572 0-38.06L198.608 246.104z"/>
	</symbol>
</svg>